<?xml version="1.0" encoding="UTF-8" standalone="no"?>
<!-- Created with Inkscape (http://www.inkscape.org/) -->

<svg
   xmlns:dc="http://purl.org/dc/elements/1.1/"
   xmlns:cc="http://creativecommons.org/ns#"
   xmlns:rdf="http://www.w3.org/1999/02/22-rdf-syntax-ns#"
   xmlns:svg="http://www.w3.org/2000/svg"
   xmlns="http://www.w3.org/2000/svg"
   xmlns:sodipodi="http://sodipodi.sourceforge.net/DTD/sodipodi-0.dtd"
   xmlns:inkscape="http://www.inkscape.org/namespaces/inkscape"
   width="210mm"
   height="297mm"
   viewBox="0 0 210 297"
   version="1.1"
   id="svg8"
   inkscape:version="0.92.3 (2405546, 2018-03-11)"
   sodipodi:docname="drawing1.svg">
  <defs
     id="defs2" />
  <sodipodi:namedview
     id="base"
     pagecolor="#ffffff"
     bordercolor="#666666"
     borderopacity="1.0"
     inkscape:pageopacity="0.0"
     inkscape:pageshadow="2"
     inkscape:zoom="7.6688536"
     inkscape:cx="139.69972"
     inkscape:cy="845.74606"
     inkscape:document-units="mm"
     inkscape:current-layer="layer1"
     showgrid="false"
     inkscape:window-width="1600"
     inkscape:window-height="846"
     inkscape:window-x="1366"
     inkscape:window-y="25"
     inkscape:window-maximized="1" />
  <metadata
     id="metadata5">
    <rdf:RDF>
      <cc:Work
         rdf:about="">
        <dc:format>image/svg+xml</dc:format>
        <dc:type
           rdf:resource="http://purl.org/dc/dcmitype/StillImage" />
        <dc:title></dc:title>
      </cc:Work>
    </rdf:RDF>
  </metadata>
  <g
     inkscape:label="Layer 1"
     inkscape:groupmode="layer"
     id="layer1">
    <g
       aria-label="KINOSHITA"
       style="font-style:italic;font-variant:normal;font-weight:bold;font-stretch:normal;font-size:4.23333311px;line-height:125%;font-family:sans-serif;-inkscape-font-specification:'sans-serif Bold Italic';letter-spacing:0px;word-spacing:0px;fill:#000000;fill-opacity:1;stroke:none;stroke-width:0.26458332px;stroke-linecap:butt;stroke-linejoin:miter;stroke-opacity:1"
       id="text817"
       transform="translate(-2.4568452,-0.23623512)">
      <path
         d="m 25.177901,72.637115 h 0.541867 v 2.963334 h -0.541867 z m 0.5842,1.397 1.096433,-1.397 h 0.635 l -1.1049,1.397 1.1049,1.566334 h -0.635 z"
         style="font-style:normal;font-variant:normal;font-weight:bold;font-stretch:normal;font-family:Cabin;-inkscape-font-specification:'Cabin Bold';fill:#ff5555;stroke-width:0.26458332px"
         id="path819"
         inkscape:connector-curvature="0" />
      <path
         d="m 27.832002,72.637115 h 0.541867 v 2.963334 h -0.541867 z"
         style="font-style:normal;font-variant:normal;font-weight:bold;font-stretch:normal;font-family:Cabin;-inkscape-font-specification:'Cabin Bold';fill:#ff5555;stroke-width:0.26458332px"
         id="path821"
         inkscape:connector-curvature="0" />
      <path
         d="m 29.022627,72.637115 h 0.5334 l 1.265767,1.913467 v -1.913467 h 0.541867 v 2.963334 h -0.4445 l -1.354667,-2.032 v 2.032 h -0.541867 z"
         style="font-style:normal;font-variant:normal;font-weight:bold;font-stretch:normal;font-family:Cabin;-inkscape-font-specification:'Cabin Bold';fill:#ff5555;stroke-width:0.26458332px"
         id="path823"
         inkscape:connector-curvature="0" />
      <path
         d="m 33.298426,75.659715 q -0.4191,0 -0.753533,-0.1905 -0.3302,-0.194733 -0.5207,-0.541866 -0.186267,-0.351367 -0.186267,-0.808567 0,-0.4572 0.186267,-0.804333 0.1905,-0.351367 0.5207,-0.541867 0.334433,-0.194733 0.753533,-0.194733 0.4191,0 0.7493,0.194733 0.334433,0.1905 0.5207,0.541867 0.1905,0.347133 0.1905,0.804333 0,0.4572 -0.1905,0.808567 -0.186267,0.347133 -0.5207,0.541866 -0.3302,0.1905 -0.7493,0.1905 z m 0,-0.524933 q 0.4318,0 0.6604,-0.2794 0.232833,-0.2794 0.232833,-0.7366 0,-0.4572 -0.232833,-0.7366 -0.2286,-0.2794 -0.6604,-0.2794 -0.4318,0 -0.664633,0.2794 -0.2286,0.2794 -0.2286,0.7366 0,0.4572 0.2286,0.7366 0.232833,0.2794 0.664633,0.2794 z"
         style="font-style:normal;font-variant:normal;font-weight:bold;font-stretch:normal;font-family:Cabin;-inkscape-font-specification:'Cabin Bold';fill:#ff5555;stroke-width:0.26458332px"
         id="path825"
         inkscape:connector-curvature="0" />
      <path
         d="m 36.091434,75.659715 q -0.249767,0 -0.537634,-0.06773 -0.283633,-0.06773 -0.4445,-0.148167 l 0.0635,-0.575733 q 0.5588,0.270933 0.982134,0.270933 0.224366,0 0.351366,-0.08467 0.127,-0.0889 0.127,-0.258234 0,-0.127 -0.07197,-0.207433 -0.06773,-0.08467 -0.198967,-0.1397 -0.131233,-0.05927 -0.4191,-0.160867 -0.270933,-0.09313 -0.448733,-0.194733 -0.1778,-0.105833 -0.283634,-0.2667 -0.1016,-0.1651 -0.1016,-0.402167 0,-0.381 0.2794,-0.613833 0.2794,-0.232833 0.8001,-0.232833 0.245534,0 0.486834,0.05503 0.245533,0.05503 0.448733,0.135467 l -0.05503,0.554566 q -0.262466,-0.1143 -0.482599,-0.169333 -0.2159,-0.05927 -0.4318,-0.05927 -0.2413,0 -0.3683,0.08043 -0.127,0.08043 -0.127,0.232833 0,0.118533 0.06773,0.194733 0.06773,0.0762 0.182033,0.127 0.118534,0.0508 0.347134,0.122767 0.512233,0.160867 0.745066,0.372533 0.237067,0.207434 0.237067,0.5715 0,0.347134 -0.2413,0.605367 -0.2413,0.258233 -0.905933,0.258233 z"
         style="font-style:normal;font-variant:normal;font-weight:bold;font-stretch:normal;font-family:Cabin;-inkscape-font-specification:'Cabin Bold';fill:#ff5555;stroke-width:0.26458332px"
         id="path827"
         inkscape:connector-curvature="0" />
      <path
         d="m 37.687732,72.637115 h 0.541866 v 1.172634 h 1.354667 v -1.172634 h 0.541866 v 2.963334 h -0.541866 v -1.2827 h -1.354667 v 1.2827 h -0.541866 z"
         style="font-style:normal;font-variant:normal;font-weight:bold;font-stretch:normal;font-family:Cabin;-inkscape-font-specification:'Cabin Bold';fill:#ff5555;stroke-width:0.26458332px"
         id="path829"
         inkscape:connector-curvature="0" />
      <path
         d="m 40.780049,72.637115 h 0.541867 v 2.963334 h -0.541867 z"
         style="font-style:normal;font-variant:normal;font-weight:bold;font-stretch:normal;font-family:Cabin;-inkscape-font-specification:'Cabin Bold';fill:#ff5555;stroke-width:0.26458332px"
         id="path831"
         inkscape:connector-curvature="0" />
      <path
         d="m 42.546407,73.162049 h -0.8382 v -0.524934 h 2.218266 v 0.524934 h -0.8382 v 2.4384 h -0.541866 z"
         style="font-style:normal;font-variant:normal;font-weight:bold;font-stretch:normal;font-family:Cabin;-inkscape-font-specification:'Cabin Bold';fill:#ff5555;stroke-width:0.26458332px"
         id="path833"
         inkscape:connector-curvature="0" />
      <path
         d="m 45.632308,74.897715 h -1.079499 l -0.245534,0.702734 h -0.524933 l 1.0541,-2.963334 h 0.512233 l 1.0541,2.963334 h -0.524933 z m -0.169333,-0.474133 -0.3683,-1.058333 -0.372533,1.058333 z"
         style="font-style:normal;font-variant:normal;font-weight:bold;font-stretch:normal;font-family:Cabin;-inkscape-font-specification:'Cabin Bold';fill:#ff5555;stroke-width:0.26458332px"
         id="path835"
         inkscape:connector-curvature="0" />
    </g>
  </g>
</svg>
