<?xml version="1.0" encoding="UTF-8" standalone="no"?>
<!-- Created with Inkscape (http://www.inkscape.org/) -->

<svg
   width="210mm"
   height="210mm"
   viewBox="0 0 210 210"
   version="1.1"
   id="svg5"
   xml:space="preserve"
   sodipodi:docname="duke1.svg"
   inkscape:version="1.2 (1:1.2.1+202207142221+cd75a1ee6d)"
   inkscape:export-filename="duke1.png"
   inkscape:export-xdpi="96"
   inkscape:export-ydpi="96"
   xmlns:inkscape="http://www.inkscape.org/namespaces/inkscape"
   xmlns:sodipodi="http://sodipodi.sourceforge.net/DTD/sodipodi-0.dtd"
   xmlns="http://www.w3.org/2000/svg"
   xmlns:svg="http://www.w3.org/2000/svg"
   xmlns:rdf="http://www.w3.org/1999/02/22-rdf-syntax-ns#"
   xmlns:cc="http://creativecommons.org/ns#"
   xmlns:dc="http://purl.org/dc/elements/1.1/"><title
     id="title31087">Duke and the Ring</title><sodipodi:namedview
     id="namedview7"
     pagecolor="#ffffff"
     bordercolor="#666666"
     borderopacity="1.0"
     inkscape:showpageshadow="2"
     inkscape:pageopacity="0.0"
     inkscape:pagecheckerboard="0"
     inkscape:deskcolor="#d1d1d1"
     inkscape:document-units="mm"
     showgrid="false"
     inkscape:zoom="0.69670057"
     inkscape:cx="365.29323"
     inkscape:cy="423.42437"
     inkscape:window-width="1600"
     inkscape:window-height="876"
     inkscape:window-x="0"
     inkscape:window-y="0"
     inkscape:window-maximized="1"
     inkscape:current-layer="layer1"
     showguides="false"><inkscape:grid
       type="xygrid"
       id="grid9021"
       originx="0"
       originy="0" /><sodipodi:guide
       position="239.44791,82.999996"
       orientation="0,-1"
       id="guide9023"
       inkscape:locked="false" /><sodipodi:guide
       position="239.44791,109.45833"
       orientation="0,-1"
       id="guide9025"
       inkscape:locked="false" /><sodipodi:guide
       position="238.96826,85.662378"
       orientation="0,-1"
       id="guide30281"
       inkscape:locked="false" /></sodipodi:namedview><defs
     id="defs2"><inkscape:path-effect
       effect="spiro"
       id="path-effect16510"
       is_visible="true"
       lpeversion="1" /><inkscape:path-effect
       effect="spiro"
       id="path-effect16506"
       is_visible="true"
       lpeversion="1" /><inkscape:path-effect
       effect="spiro"
       id="path-effect13702"
       is_visible="true"
       lpeversion="1" /><inkscape:path-effect
       effect="spiro"
       id="path-effect12083"
       is_visible="true"
       lpeversion="1" /><inkscape:path-effect
       effect="spiro"
       id="path-effect6481"
       is_visible="true"
       lpeversion="1" /><path
       id="A"
       d="M 0.103,41.983 C 0.088,36 0.981,29.769 2.433,25.72 c 1.129,-3.15 2.101,-4.492 2.958,-5.676 0.496,-0.686 1.267,-1.519 1.87,-2.111 0.594,-0.583 1.469,-1.271 2.112,-1.8 1.51,-1.242 3.84,-2.466 5.544,-3.423 0.986,-0.554 2.387,-1.126 3.41,-1.608 2.327,-1.096 5.606,-2.146 8.042,-2.971 2.826,-0.957 6.692,-1.926 9.6,-2.596 C 39.267,4.776 43.702,3.931 47.039,3.372 52.752,2.414 59.5,1.695 59.557,1.69 l 6.551,-0.622 13.293,-0.781 6.681,-0.166 13.288,0.104 6.551,0.264 12.759,0.938 c 0.152,0.013 15.364,1.339 28.631,4.624 1.509,0.374 3.526,0.861 5.012,1.319 2.646,0.815 6.151,1.975 8.752,2.922 1.233,0.449 2.832,1.17 4.021,1.728 1.022,0.48 2.343,1.211 3.347,1.729 2.239,1.272 3.922,8.487 3.905,17.424 -0.019,10.081 -2.191,18.542 -4.858,18.9 C 146.73,38.282 95.584,33.337 53.249,39.03 23.021,43.095 5.46,51.484 5.443,60.243 c -0.006,3.509 2.802,7.076 8.739,10.449 20.758,11.794 71.905,16.739 114.24,11.046 30.228,-4.064 47.79,-12.454 47.806,-21.213 0.007,-3.509 -2.802,-7.076 -8.738,-10.449 2.667,-0.358 4.84,-8.819 4.858,-18.9 0.017,-8.937 -1.666,-16.151 -3.905,-17.424 0.89,0.51 2.05,1.236 2.893,1.819 0.688,0.476 1.545,1.193 2.204,1.708 0.72,0.563 1.594,1.43 2.158,2.149 0.319,0.407 0.779,0.925 1.061,1.359 1.08,1.665 1.08,1.665 1.6,2.742 0.457,0.949 1.074,2.39 1.791,5.131 0.237,0.906 0.827,3.418 1.192,7.17 0.336,3.453 0.298,6.363 0.276,7.926 -0.01,0.773 -0.092,2.527 -0.151,3.236 -0.2,2.386 -0.246,2.72 -0.503,4.569 -0.001,0.013 -0.199,1.371 -0.516,2.841 -0.226,1.044 -0.226,1.044 -0.675,2.683 -0.219,0.796 -0.641,2.096 -1.407,3.772 -0.555,1.214 -1.191,2.17 -1.571,2.741 -0.561,0.843 -1.468,1.856 -2.172,2.584 -0.604,0.625 -1.467,1.409 -2.177,1.91 -1.577,1.113 -3.777,2.459 -5.456,3.411 -0.978,0.556 -2.354,1.158 -3.386,1.606 -3.686,1.603 -7.826,3.019 -12.657,4.329 -3.095,0.839 -7.267,1.788 -10.413,2.401 -6.437,1.253 -11.851,1.938 -11.9,1.944 l -13.004,1.4 -6.624,0.467 -13.349,0.48 C 91.14,84.159 86.469,84.19 82.369,84.026 L 75.818,83.761 63.06,82.823 C 47.818,81.346 38.435,79.141 34.429,78.199 32.014,77.632 23.596,75.524 16.644,72.229 15.623,71.745 14.272,71.07 13.297,70.5 12.185,69.85 10.746,68.906 9.692,68.165 8.437,67.282 6.988,65.809 5.932,64.695 5.512,64.251 5.033,63.584 4.708,63.066 3.812,61.64 3.745,61.497 3.222,60.379 2.338,58.491 1.795,56.372 1.503,55.233 1.142,53.827 0.699,51.271 0.516,49.536 0.287,47.378 0.112,45.448 0.103,41.983 Z" /><path
       id="F"
       d="m 162.699,32.473 c 5.563,3.161 8.194,6.504 8.188,9.792 l 0.013,1.345 0.045,1.321 0.074,1.267 0.103,1.233 0.127,1.161 0.152,1.118 0.169,1.022 0.191,0.972 0.194,0.842 0.213,0.785 0.188,0.599 0.197,0.536 0.102,0.242 c 0.023,0.05 0.053,0.116 0.08,0.164 l -0.246,-0.365 -0.498,-0.593 -1.33,-1.271 c -2.248,-1.702 -2.336,-1.769 -4.059,-2.755 -2.238,-1.272 -3.919,-8.479 -3.903,-17.415" /><path
       id="G"
       d="m 10.852,42 -0.068,2.666 -0.079,1.267 -0.107,1.232 -0.131,1.16 -0.157,1.117 -0.172,1.021 -0.195,0.971 -0.198,0.84 -0.215,0.783 -0.19,0.596 -0.198,0.533 -0.1,0.235 -0.079,0.16 0.253,-0.373 0.511,-0.604 1.656,-1.552 c 5.626,-4.085 15.494,-9.251 42.083,-12.975 l 6.365,-0.769 6.477,-0.614 6.549,-0.461 6.596,-0.312 6.611,-0.164 6.597,-0.02 6.552,0.123 c 1.944,0.079 4.534,0.262 6.479,0.262 l 6.373,0.397 6.242,0.531 6.072,0.66 5.888,0.788 5.649,0.909 5.414,1.034 5.096,1.142 4.825,1.267 4.397,1.352 4.121,1.487 3.514,1.499 c 0.997,0.508 2.344,1.151 3.318,1.701 0.287,0.162 0.583,0.229 0.886,0.188 C 146.73,38.282 95.584,33.337 53.249,39.03 23.021,43.095 5.46,51.484 5.443,60.243 8.414,60.248 10.833,52.082 10.852,42" /><path
       id="H"
       d="m 55.648,22.122 c 39.67,-5.334 87.599,-0.7 107.051,10.351 -0.017,8.936 1.665,16.143 3.904,17.416 l -3.084,-1.592 -3.748,-1.608 -4.026,-1.456 -4.492,-1.383 -4.784,-1.256 -5.137,-1.153 -5.396,-1.03 -5.667,-0.913 -5.88,-0.787 -6.08,-0.661 -6.24,-0.53 -6.375,-0.397 -6.479,-0.262 -6.553,-0.123 -6.597,0.02 -6.611,0.164 -6.594,0.312 -6.551,0.461 -6.47,0.613 -6.373,0.77 -5.879,0.868 C 33.817,42.369 17.07,46.111 9.727,53.604 l -0.407,0.47 -0.357,0.508 0.071,-0.143 0.107,-0.253 0.191,-0.513 0.197,-0.616 0.211,-0.768 0.202,-0.855 0.192,-0.958 0.175,-1.033 0.155,-1.106 0.132,-1.171 0.106,-1.223 0.08,-1.276 0.049,-1.312 0.019,-1.354 c 0.017,-8.209 16.473,-16.07 44.798,-19.879" /><path
       id="I"
       d="M 176.296,24.013 C 176.279,32.772 158.718,41.162 128.49,45.226 86.155,50.92 35.008,45.974 14.25,34.18 8.313,30.807 5.505,27.24 5.511,23.731 8.482,23.736 10.87,31.919 10.851,42 l -0.013,-1.345 -0.03,-0.97 -0.066,-1.279 -0.095,-1.247 -0.12,-1.178 L 10.381,34.845 10.217,33.801 10.03,32.806 9.837,31.935 9.626,31.122 9.434,30.484 9.23,29.91 9.107,29.608 9,29.38 l 0.167,0.259 0.346,0.438 1.189,1.213 c 1.92,1.539 2.215,1.776 4.433,3.079 l 3.084,1.591 3.748,1.609 4.027,1.456 4.492,1.382 4.784,1.257 5.136,1.152 5.397,1.03 5.667,0.913 5.88,0.787 6.081,0.661 6.24,0.53 6.375,0.397 6.479,0.261 6.553,0.123 6.597,-0.02 6.611,-0.164 6.594,-0.311 6.552,-0.462 6.469,-0.613 6.373,-0.77 5.97,-0.885 c 8.049,-1.427 26.9,-4.77 36.315,-12.279 l 0.96,-0.852 c 0.355,-0.378 0.822,-0.891 1.139,-1.303 l 0.061,-0.084 0.006,0.007 -0.159,0.371 -0.175,0.48 -0.209,0.666 -0.205,0.761 -0.203,0.881 -0.189,0.962 -0.174,1.047 -0.152,1.115 -0.129,1.176 -0.104,1.234 -0.075,1.277 -0.061,2.511 c 0.016,-10.079 2.435,-18.255 5.406,-18.25" /><path
       id="J"
       d="m 171.023,38.477 0.232,-2.41 0.15,-1.104 0.176,-1.058 0.187,-0.948 0.206,-0.895 0.2,-0.743 0.214,-0.684 0.167,-0.458 0.167,-0.393 -0.001,-0.013 -0.065,0.089 -0.617,0.767 -1.481,1.388 -2.164,1.581 c -4.007,2.362 -13.39,7.893 -40.121,11.583 l -6.365,0.769 -6.477,0.614 -6.55,0.462 -6.596,0.311 -6.611,0.164 -6.597,0.02 -6.552,-0.123 c -1.943,-0.078 -4.534,-0.261 -6.479,-0.261 l -6.373,-0.397 -6.242,-0.53 -6.073,-0.66 -5.888,-0.788 -5.648,-0.91 -5.415,-1.033 -5.095,-1.143 -4.825,-1.267 -4.398,-1.351 -4.121,-1.487 -3.514,-1.5 c -0.997,-0.508 -2.343,-1.151 -3.318,-1.701 l -2.09,-1.284 C 10.903,31.512 10.629,31.31 9.514,30.077 L 9.223,29.715 9,29.38 l 0.1,0.208 0.13,0.322 0.196,0.556 0.199,0.657 0.208,0.799 0.196,0.885 0.185,0.982 0.166,1.056 0.145,1.125 0.122,1.188 0.094,1.237 0.067,1.289 0.036,1.321 0.008,0.995 c -0.006,3.288 2.625,6.63 8.188,9.792 19.452,11.052 67.38,15.686 107.051,10.352 28.325,-3.81 44.781,-11.671 44.797,-19.879 l 0.019,-1.344 0.116,-2.444" /><path
       id="K"
       d="m 168.442,13.752 c 1.234,0.734 4.514,2.686 6.916,5.293 l 1.102,1.333 1.219,1.854 0.628,1.192 0.614,1.392 0.448,1.206 0.425,1.333 0.348,1.28 0.32,1.377 0.271,1.371 0.24,1.452 0.2,1.464 0.167,1.531 0.129,1.55 0.094,1.606 0.056,1.625 0.017,1.67 -0.022,1.659 -0.146,3.039 -0.131,1.561 -0.168,1.525 -0.202,1.481 -0.238,1.438 -0.275,1.396 -0.313,1.351 -0.357,1.32 -0.402,1.275 -0.471,1.277 -0.543,1.253 -0.686,1.328 -0.886,1.413 -1.233,1.581 -2.529,2.444 -2.385,1.752 c -4.672,2.789 -14.393,8.593 -42.007,12.408 l -6.45,0.779 -6.559,0.622 -6.624,0.467 -6.669,0.314 -6.682,0.166 c -1.999,0.006 -4.877,0.914 -6.666,0.02 L 82.37,84.026 c -1.965,-0.079 -4.583,-0.265 -6.548,-0.265 l -6.445,-0.401 -6.316,-0.537 -6.152,-0.669 -5.97,-0.799 -5.742,-0.924 -5.512,-1.053 -5.213,-1.169 -4.949,-1.3 -4.562,-1.401 -4.296,-1.551 -3.768,-1.61 c -1.082,-0.551 -2.542,-1.251 -3.6,-1.848 L 10.702,68.885 C 7.915,66.781 7.556,66.51 5.932,64.695 l -1,-1.301 C 4.604,62.877 4.157,62.193 3.858,61.658 L 3.264,60.471 2.685,59.098 2.252,57.89 1.844,56.554 1.507,55.263 1.198,53.876 0.937,52.492 0.706,51.03 0.516,49.554 0.359,48.013 0.24,46.452 0.157,44.838 0.112,43.203 0.104,41.983 0.127,40.324 0.189,38.687 0.288,37.094 0.422,35.532 0.593,34.015 0.8,32.537 l 0.243,-1.434 0.279,-1.389 0.319,-1.352 0.36,-1.305 0.414,-1.29 0.47,-1.252 0.57,-1.288 C 3.66,22.835 3.922,22.308 4.142,21.925 L 5.067,20.484 C 5.486,19.949 6.04,19.23 6.492,18.722 L 8.41,16.899 C 14.661,12.227 25.389,6.364 53.1,2.47 l 6.45,-0.779 6.559,-0.623 6.624,-0.466 6.669,-0.315 6.681,-0.166 6.666,-0.02 6.622,0.124 c 1.965,0.079 4.582,0.264 6.548,0.264 l 6.445,0.402 6.316,0.537 6.152,0.669 5.97,0.799 5.741,0.925 5.513,1.052 5.213,1.169 4.948,1.299 4.563,1.401 4.295,1.551 3.769,1.61 c 1.08,0.553 2.555,1.228 3.598,1.849 C 146.799,1.771 95.651,-3.175 53.317,2.518 23.089,6.583 5.528,14.972 5.511,23.731 5.505,27.24 8.313,30.808 14.25,34.18 c 20.758,11.793 71.905,16.74 114.24,11.046 30.228,-4.064 47.789,-12.454 47.806,-21.213 0.006,-3.508 -2.802,-7.076 -8.739,-10.449 0.302,-0.041 0.598,0.025 0.885,0.188" /><path
       id="M"
       d="m 170.888,42.265 c 0.019,1.885 0.042,4.229 0.512,7.436 0.453,3.09 1.134,4.813 1.337,5.172 -0.281,-0.417 -0.386,-0.573 -0.744,-0.958 -0.376,-0.403 -0.901,-0.922 -1.33,-1.271 -0.801,-0.65 -1.797,-1.46 -4.059,-2.755 -2.239,-1.272 -3.921,-8.479 -3.904,-17.416 5.562,3.161 8.194,6.504 8.188,9.792 z" /><path
       id="O"
       d="m 53.467,39.077 c -2.354,0.307 -9.051,1.307 -13.62,2.279 l -4.969,1.101 c -2.643,0.681 -6.187,1.542 -8.765,2.44 -1.135,0.396 -2.669,0.869 -3.781,1.325 -1.922,0.789 -4.515,1.802 -6.324,2.824 -1.44,0.813 -3.323,1.982 -4.624,3.005 -0.535,0.42 -1.185,1.06 -1.656,1.552 -0.349,0.365 -0.542,0.649 -0.764,0.978 0.256,-0.451 0.921,-2.305 1.348,-5.148 0.482,-3.212 0.514,-5.552 0.54,-7.432 C 10.833,52.083 8.414,60.249 5.444,60.244 5.46,51.484 23.021,43.095 53.249,39.03 c 42.335,-5.693 93.481,-0.748 114.24,11.046 -0.303,0.041 -0.599,-0.025 -0.886,-0.188 -3.454,-1.948 -6.885,-3.223 -6.918,-3.234 -2.507,-0.907 -5.884,-2.021 -8.433,-2.805 -1.431,-0.438 -3.372,-0.91 -4.825,-1.267 -10.743,-2.633 -22.23,-3.971 -28.122,-4.533 -3.776,-0.361 -8.821,-0.776 -12.612,-0.928 l -6.479,-0.262 -6.552,-0.123 c -1.979,-0.037 -4.618,-0.012 -6.597,0.02 -10.55,0.168 -20.356,0.724 -32.598,2.321 z" /><path
       id="Q"
       d="m 166.604,49.889 -3.084,-1.592 -3.748,-1.608 c -2.477,-0.977 -5.857,-2.077 -8.417,-2.81 -8.123,-2.323 -15.913,-3.611 -21.066,-4.378 -7.652,-1.139 -15.928,-1.939 -24.595,-2.379 -12.195,-0.619 -20.987,-0.357 -26.239,-0.201 -0.06,0.002 -6.06,0.185 -13.145,0.773 -3.859,0.32 -8.995,0.878 -12.834,1.382 -1.685,0.221 -6.166,0.843 -11.396,1.838 -2.983,0.568 -6.932,1.473 -9.878,2.211 -2.527,0.633 -5.852,1.655 -8.308,2.524 -2.045,0.724 -4.732,1.818 -6.679,2.777 -6.114,3.015 -7.945,5.655 -8.25,6.153 0.938,-1.89 1.888,-6.818 1.888,-12.581 0.016,-8.208 16.472,-16.069 44.797,-19.878 39.67,-5.334 87.599,-0.7 107.051,10.351 -0.018,8.938 1.663,16.145 3.903,17.418 z" /><path
       id="S"
       d="m 176.296,24.013 c -2.971,-0.005 -5.39,8.17 -5.408,18.251 0.006,-3.288 -2.626,-6.631 -8.188,-9.792 0.019,-10.081 2.191,-18.55 4.857,-18.909 5.937,3.374 8.745,6.942 8.739,10.45 z" /><path
       id="U"
       d="M 10.852,42 C 10.871,31.919 8.482,23.736 5.512,23.731 5.528,14.972 23.089,6.583 53.317,2.518 95.651,-3.175 146.799,1.771 167.557,13.565 164.891,13.923 162.718,22.393 162.7,32.474 143.247,21.422 95.318,16.788 55.648,22.122 27.323,25.931 10.867,33.792 10.852,42 Z" /><path
       id="W"
       d="M 10.852,42 C 10.836,40.416 10.81,37.765 10.381,34.845 9.811,30.959 9.081,29.53 9,29.38 c 0.327,0.505 0.449,0.694 1.703,1.909 0.429,0.416 1.066,0.898 1.552,1.245 0.708,0.505 2.586,1.846 5.964,3.425 1.813,0.848 4.009,1.805 7.775,3.065 l 9.276,2.639 c 6.528,1.479 6.528,1.479 10.533,2.183 6.12,1.076 11.498,1.694 11.547,1.7 l 6.081,0.661 6.24,0.53 c 1.909,0.162 4.461,0.278 6.373,0.397 2.329,0.145 9.095,0.374 13.034,0.384 3.933,0.009 7.647,0.018 13.208,-0.184 7.616,-0.276 13.095,-0.768 13.146,-0.772 l 6.469,-0.613 6.373,-0.77 5.97,-0.885 c 3.249,-0.574 7.572,-1.398 10.8,-2.083 4.766,-1.011 12.55,-3.288 16.814,-5.204 1.808,-0.812 4.235,-1.899 5.885,-2.997 0.862,-0.574 2.028,-1.324 2.816,-1.995 0.888,-0.755 1.425,-1.231 2.159,-2.238 h 0.009 c -0.761,1.668 -1.2,4.382 -1.317,5.175 -0.47,3.194 -0.498,5.478 -0.521,7.313 0.019,-10.081 2.438,-18.256 5.408,-18.251 -0.017,8.759 -17.578,17.149 -47.806,21.213 C 86.155,50.92 35.008,45.974 14.25,34.18 8.313,30.807 5.505,27.24 5.511,23.731 8.482,23.736 10.871,31.919 10.852,42 Z" /><path
       id="Y"
       d="m 15.135,34.368 c 0.438,0.258 2.826,1.624 6.832,3.2 3.745,1.473 7.338,2.5 8.52,2.838 8.969,2.564 18.018,3.911 20.991,4.354 5.252,0.781 13.778,1.828 24.568,2.375 l 6.479,0.261 6.553,0.123 c 3.962,0.03 9.247,-0.067 13.208,-0.184 0.059,-10e-4 6.45,-0.217 13.146,-0.772 4.936,-0.409 6.297,-0.577 12.842,-1.383 2.259,-0.278 5.26,-0.733 7.499,-1.139 3.189,-0.578 7.447,-1.352 10.594,-2.136 2.722,-0.679 6.342,-1.633 9.012,-2.494 2.248,-0.726 5.218,-1.803 7.364,-2.791 1.747,-0.804 4.066,-1.936 5.652,-3.024 0.878,-0.602 2.025,-1.445 2.823,-2.15 0.746,-0.66 1.149,-1.198 1.505,-1.674 0,0.004 0.002,0.009 10e-4,0.013 -0.5,1.075 -1.004,3.059 -1.316,5.179 -0.462,3.147 -0.493,5.451 -0.519,7.301 -0.016,8.208 -16.472,16.069 -44.797,19.879 C 86.422,67.478 38.493,62.844 19.041,51.792 13.478,48.631 10.847,45.288 10.853,42 10.844,40.656 10.825,37.86 10.38,34.832 9.929,31.764 9.38,30.174 9,29.38 c 0.573,1 2.153,2.301 2.332,2.447 1.064,0.865 2.621,1.845 3.803,2.541 z" /><path
       id="a"
       d="M 13.296,70.504 C 11.79,69.611 9.852,68.294 8.477,67.21 7.635,66.546 6.588,65.548 5.932,64.699 L 4.053,62.011 C 3.776,61.573 3.484,60.945 3.264,60.476 2.365,58.557 1.87,56.654 1.508,55.263 1.334,54.594 0.737,52.094 0.362,48.028 0.051,44.668 0.104,41.625 0.127,40.325 0.221,34.968 1.165,29.692 2.003,27.057 2.658,24.994 2.895,24.432 3.457,23.227 4.142,21.759 5.06,20.496 5.069,20.484 5.747,19.563 7.334,17.406 10.778,15.13 12.798,13.796 18.944,9.734 33.782,6.058 44.934,3.295 56.324,2.017 59.549,1.692 61.906,1.454 68.167,0.821 72.732,0.603 l 6.669,-0.315 c 4.003,-0.1 9.349,-0.413 13.347,-0.185 1.985,0.08 4.637,0.044 6.622,0.124 l 6.548,0.264 6.445,0.402 12.469,1.206 c 6.088,0.738 10.503,1.506 11.711,1.724 2.887,0.521 6.158,1.11 10.726,2.221 3.819,0.929 4.033,0.996 9.511,2.701 0.071,0.022 6.22,1.937 11.663,5.009 -0.287,-0.163 -0.583,-0.229 -0.886,-0.188 C 146.799,1.771 95.651,-3.175 53.317,2.518 23.089,6.583 5.528,14.972 5.511,23.731 5.505,27.24 8.313,30.808 14.25,34.18 c 20.758,11.793 71.905,16.74 114.24,11.046 30.228,-4.064 47.789,-12.454 47.806,-21.213 0.006,-3.508 -2.802,-7.076 -8.739,-10.449 0.303,-0.041 0.599,0.024 0.886,0.188 1.506,0.938 3.511,2.211 4.878,3.342 1.591,1.314 2.561,2.548 3.14,3.285 0.723,0.92 2.529,3.565 3.682,8.257 0.229,0.927 0.833,3.39 1.199,7.196 0.251,2.611 0.343,5.339 0.272,8.11 -0.091,3.563 -0.444,6.295 -0.647,7.606 -0.501,3.229 -1.054,5.153 -1.576,6.751 -0.295,0.902 -0.832,2.31 -1.71,3.889 -0.583,1.047 -0.583,1.047 -2.119,2.994 -0.654,0.828 -1.727,1.76 -2.529,2.444 -0.675,0.577 -1.633,1.281 -2.385,1.752 -1.768,1.105 -4.239,2.391 -6.106,3.317 -1.077,0.535 -2.576,1.118 -3.698,1.551 -4.017,1.547 -8.448,2.897 -13.549,4.128 -3.265,0.788 -7.655,1.687 -10.968,2.24 -6.704,1.119 -11.388,1.679 -14.136,1.951 -3.978,0.395 -8.929,0.885 -13.183,1.089 l -6.669,0.314 c -4.003,0.101 -9.35,0.42 -13.347,0.186 -3.938,-0.335 -9.217,-0.389 -13.169,-0.389 -1.938,0 -4.516,-0.237 -6.446,-0.401 l -6.316,-0.537 -6.152,-0.669 c -0.05,-0.005 -5.51,-0.633 -11.712,-1.723 -1.573,-0.277 -5.752,-1.012 -10.725,-2.222 -3.819,-0.929 -4.033,-0.995 -9.51,-2.701 -2.905,-0.903 -8.341,-3.037 -11.666,-5.008 z" /><filter
       id="mask-powermask-path-effect21785_inverse"
       inkscape:label="filtermask-powermask-path-effect21785"
       style="color-interpolation-filters:sRGB"
       height="100"
       width="100"
       x="-50"
       y="-50"><feColorMatrix
         id="mask-powermask-path-effect21785_primitive1"
         values="1"
         type="saturate"
         result="fbSourceGraphic" /><feColorMatrix
         id="mask-powermask-path-effect21785_primitive2"
         values="-1 0 0 0 1 0 -1 0 0 1 0 0 -1 0 1 0 0 0 1 0 "
         in="fbSourceGraphic" /></filter></defs><g
     inkscape:label="Layer 1"
     inkscape:groupmode="layer"
     id="layer1"><g
       id="g30915"
       transform="matrix(0.91570601,0,0,0.91570601,8.8508695,8.8508702)"><path
         id="path13767"
         style="fill:#fcdc0a;fill-opacity:1;stroke:none;stroke-width:22.4484;stroke-linecap:round;stroke-linejoin:round;stroke-dasharray:none;stroke-dashoffset:0;paint-order:stroke fill markers"
         d="m 25.828463,32.084206 c -194.914233,-1e-5 -355.710473,69.726134 -354.428423,155.149014 0.47898,31.91452 -0.36908,74.44596 0,98.24823 1.32453,85.4215 159.51589,154.22692 354.428423,154.22691 194.912547,10e-6 356.019787,-68.82539 353.723237,-154.22691 -1.56818,-58.31559 1.99184,-66.05812 0,-98.24823 C 374.27516,101.95927 220.74272,32.084197 25.828463,32.084206 Z m 0,18.523179 C 189.9894,50.607364 323.06861,101.70665 323.07021,164.74123 c -0.0932,16.89525 -9.95373,33.57183 -28.86996,48.8261 -83.36877,42.803 -175.83919,65.30622 -268.371787,65.30983 -92.484819,0.004 -184.909163,-22.46879 -268.247113,-65.22261 -18.99208,-15.27704 -28.89615,-31.98499 -28.99464,-48.91332 0.002,-63.03458 133.08082,-114.133867 297.241753,-114.133845 z"
         transform="matrix(0.27323132,0,0,0.25896336,97.966562,74.977545)"
         sodipodi:nodetypes="sssssssscccccs" /><path
         id="path29397"
         style="fill:#ffa800;fill-opacity:1;fill-rule:nonzero;stroke:none;stroke-width:22.4484;stroke-linecap:round;stroke-linejoin:round;stroke-dasharray:none;stroke-dashoffset:0;paint-order:stroke fill markers"
         d="m 377.74359,263.9248 c -0.18432,84.8141 -157.00258,175.78357 -351.915127,175.78356 -194.912533,10e-6 -353.719153,-97.30664 -354.498393,-180.45986 0,0 74.86916,151.73143 353.263577,146.83057 C 324.69488,400.79607 377.74359,263.9248 377.74359,263.9248 Z"
         transform="matrix(0.27323132,0,0,0.25896336,97.966562,74.977545)"
         sodipodi:nodetypes="cscsc" /><path
         id="ellipse9018"
         style="fill:none;stroke:#000000;stroke-width:22.4484;stroke-linecap:round;stroke-linejoin:round;stroke-dasharray:none;stroke-dashoffset:0;paint-order:stroke fill markers"
         d="m 25.828463,32.083416 c -194.914633,-1e-5 -355.710473,69.726784 -354.428423,155.149824 0.47898,31.91458 -0.36908,74.44598 0,98.24831 1.32453,85.42166 159.51549,154.22682 354.428423,154.22681 194.912927,10e-6 356.019787,-68.82514 353.723237,-154.22682 -1.56818,-58.31571 1.99184,-66.05814 0,-98.24831 C 374.27516,101.95912 220.7431,32.083407 25.828463,32.083416 Z"
         transform="matrix(0.27323132,0,0,0.27737883,97.966562,66.880107)"
         sodipodi:nodetypes="sssssss" /><path
         id="path8444"
         style="fill:none;stroke:#000000;stroke-width:29.6252;stroke-linecap:round;stroke-linejoin:round;stroke-dasharray:none;stroke-dashoffset:0;paint-order:stroke fill markers"
         d="m 344.47303,351.19475 a 352.92255,154.68829 0 0 0 -4.95435,-4.46981 352.92255,154.68829 0 0 0 -8.04909,-6.46264 352.92255,154.68829 0 0 0 -8.74298,-6.28812 352.92255,154.68829 0 0 0 -9.41606,-6.09673 352.92255,154.68829 0 0 0 -10.06599,-5.89406 352.92255,154.68829 0 0 0 -10.69512,-5.67733 352.92255,154.68829 0 0 0 -11.29879,-5.44652 352.92255,154.68829 0 0 0 -11.87704,-5.20727 352.92255,154.68829 0 0 0 -12.42984,-4.95112 352.92255,154.68829 0 0 0 -12.95256,-4.68936 352.92255,154.68829 0 0 0 -13.44754,-4.41069 352.92255,154.68829 0 0 0 -13.91013,-4.12641 352.92255,154.68829 0 0 0 -14.34265,-3.83367 352.92255,154.68829 0 0 0 -14.74279,-3.52687 352.92255,154.68829 0 0 0 -15.11056,-3.21725 352.92255,154.68829 0 0 0 -15.4413,-2.89918 352.92255,154.68829 0 0 0 -15.73737,-2.57267 352.92255,154.68829 0 0 0 -16.00104,-2.24053 352.92255,154.68829 0 0 0 -16.2254,-1.90558 352.92255,154.68829 0 0 0 -16.412747,-1.565 352.92255,154.68829 0 0 0 -16.565404,-1.22159 352.92255,154.68829 0 0 0 -16.678739,-0.87539 352.92255,154.68829 0 0 0 -16.755067,-0.52354 352.92255,154.68829 0 0 0 -16.792074,-0.17451 352.92255,154.68829 0 0 0 -50.225879,1.57344 352.92255,154.68829 0 0 0 -49.203552,4.69217 352.92255,154.68829 0 0 0 -47.179718,7.71238 352.92255,154.68829 0 0 0 -44.19368,10.57779 352.92255,154.68829 0 0 0 -40.31254,13.22646 352.92255,154.68829 0 0 0 -35.60568,15.60491 352.92255,154.68829 0 0 0 -30.17484,17.66812 352.92255,154.68829 0 0 0 -21.60072,17.33879 352.92255,154.68829 0 0 0 318.496609,88.39687 352.92255,154.68829 0 0 0 318.644631,-88.51509 z"
         transform="matrix(0.23012337,0,0,0.18909948,99.079989,64.477808)" /><g
         id="g13574"
         transform="matrix(1.0299969,0,0,1.0299969,-44.95864,14.865875)"><path
           id="path12031"
           style="opacity:1;fill:none;stroke:#000000;stroke-width:29.6252;stroke-linecap:round;stroke-linejoin:round;stroke-dasharray:none;stroke-dashoffset:0;paint-order:stroke fill markers"
           d="m -292.66821,362.84214 c 58.36181,53.93179 182.31163,88.33333 318.496609,88.39687 136.300121,-0.0602 260.337641,-34.51608 318.644631,-88.51509"
           transform="matrix(0.22342142,0,0,0.18359228,139.84375,65.249806)"
           sodipodi:nodetypes="ccc" /><path
           style="fill:none;stroke:#000000;stroke-width:22.6772;stroke-linecap:round;stroke-linejoin:round;stroke-dasharray:none;stroke-opacity:1"
           d="m 311.58448,518.24706 c 1.7286,-13.23066 7.78875,-25.05652 19.62953,-35.0076"
           id="path13537"
           transform="matrix(0.18334852,0,0,0.18334852,26.381009,40.093675)"
           sodipodi:nodetypes="cc" /><path
           style="fill:none;stroke:#000000;stroke-width:22.6772;stroke-linecap:round;stroke-linejoin:round;stroke-dasharray:none;stroke-opacity:1"
           d="m 311.58448,518.24706 c 1.7286,-13.23066 7.78875,-25.05652 19.62953,-35.0076"
           id="path13539"
           transform="matrix(0.18334852,0,0,0.18334852,26.381009,40.093675)"
           sodipodi:nodetypes="cc" /><path
           style="fill:none;stroke:#000000;stroke-width:22.6772;stroke-linecap:round;stroke-linejoin:round;stroke-dasharray:none;stroke-opacity:1"
           d="m 311.58448,518.24706 c 1.7286,-13.23066 7.78875,-25.05652 19.62953,-35.0076"
           id="path13541"
           transform="matrix(0.18261401,-0.01639525,0.01639525,0.18261401,34.282269,51.022567)"
           sodipodi:nodetypes="cc" /><path
           style="fill:none;stroke:#000000;stroke-width:22.6772;stroke-linecap:round;stroke-linejoin:round;stroke-dasharray:none;stroke-opacity:1"
           d="m 311.58448,518.24706 c 1.7286,-13.23066 7.78875,-25.05652 19.62953,-35.0076"
           id="path13543"
           transform="matrix(0.18189791,-0.02301801,0.02301801,0.18189791,47.071124,56.684694)"
           sodipodi:nodetypes="cc" /><path
           style="fill:none;stroke:#000000;stroke-width:22.6772;stroke-linecap:round;stroke-linejoin:round;stroke-dasharray:none;stroke-opacity:1"
           d="m 311.58448,518.24706 c 1.7286,-13.23066 7.78875,-25.05652 19.62953,-35.0076"
           id="path13545"
           transform="matrix(0.18154357,-0.02566349,0.02566349,0.18154357,67.026973,59.829058)"
           sodipodi:nodetypes="cc" /><path
           style="fill:none;stroke:#000000;stroke-width:22.6772;stroke-linecap:round;stroke-linejoin:round;stroke-dasharray:none;stroke-opacity:1"
           d="m 311.58448,518.24706 c 1.7286,-13.23066 7.78875,-25.05652 19.62953,-35.0076"
           id="path13547"
           transform="matrix(0.18228182,-0.01974891,0.01974891,0.18228182,80.334718,57.558441)"
           sodipodi:nodetypes="cc" /><path
           style="fill:none;stroke:#000000;stroke-width:22.6772;stroke-linecap:round;stroke-linejoin:round;stroke-dasharray:none;stroke-opacity:1"
           d="m 311.58448,518.24706 c 1.7286,-13.23066 7.78875,-25.05652 19.62953,-35.0076"
           id="path13549"
           transform="matrix(0.17959802,-0.03689486,0.03689486,0.17959802,93.778244,63.354696)"
           sodipodi:nodetypes="cc" /><path
           style="fill:none;stroke:#000000;stroke-width:22.6772;stroke-linecap:round;stroke-linejoin:round;stroke-dasharray:none;stroke-opacity:1"
           d="m 311.58448,518.24706 c 1.7286,-13.23066 7.78875,-25.05652 19.62953,-35.0076"
           id="path13551"
           transform="matrix(0.17994146,-0.03518167,0.03518167,0.17994146,120.98408,57.869601)"
           sodipodi:nodetypes="cc" /><path
           style="fill:none;stroke:#000000;stroke-width:22.6772;stroke-linecap:round;stroke-linejoin:round;stroke-dasharray:none;stroke-opacity:1"
           d="m 311.58448,518.24706 c 1.7286,-13.23066 7.78875,-25.05652 19.62953,-35.0076"
           id="path13553"
           transform="matrix(-0.18334852,0,0,-0.18334852,146.35384,235.8856)"
           sodipodi:nodetypes="cc" /><path
           style="fill:none;stroke:#000000;stroke-width:22.6772;stroke-linecap:round;stroke-linejoin:round;stroke-dasharray:none;stroke-opacity:1"
           d="m 311.58448,518.24706 c 1.7286,-13.23066 7.78875,-25.05652 19.62953,-35.0076"
           id="path13555"
           transform="matrix(-0.18229967,0.01958338,-0.01958338,-0.18229967,192.86468,237.00386)"
           sodipodi:nodetypes="cc" /><path
           style="fill:none;stroke:#000000;stroke-width:22.6772;stroke-linecap:round;stroke-linejoin:round;stroke-dasharray:none;stroke-opacity:1"
           d="m 311.58448,518.24706 c 1.7286,-13.23066 7.78875,-25.05652 19.62953,-35.0076"
           id="path13557"
           transform="matrix(-0.18221207,0.02038237,-0.02038237,-0.18221207,224.98663,237.76154)"
           sodipodi:nodetypes="cc" /><path
           style="fill:none;stroke:#000000;stroke-width:22.6772;stroke-linecap:round;stroke-linejoin:round;stroke-dasharray:none;stroke-opacity:1"
           d="m 311.58448,518.24706 c 1.7286,-13.23066 7.78875,-25.05652 19.62953,-35.0076"
           id="path13559"
           transform="matrix(-0.17587564,0.05181156,-0.05181156,-0.17587564,265.14641,221.31231)"
           sodipodi:nodetypes="cc" /></g><path
         style="fill:none;fill-opacity:1;stroke:none;stroke-width:22.6772;stroke-linecap:round;stroke-linejoin:round;stroke-dasharray:none;stroke-dashoffset:0;paint-order:stroke fill markers"
         d="M 8.3881174,80.019931 C 5.523419,78.862463 2,74.211567 2,71.587648 2,68.365984 4.4272315,65.506608 11.292613,60.640576 51.351475,32.247731 126.56687,11.321571 215,3.9658324 248.25439,1.199781 310.09639,1.1957643 342.5,3.9575511 429.40646,11.364661 500.79114,30.747019 542.98607,58.393505 c 11.40129,7.47023 13.97103,10.881648 11.9224,15.827456 -0.687,1.658568 -2.63495,3.860675 -4.32878,4.893571 -5.08173,3.098832 -9.38201,2.449222 -17.16599,-2.593134 l -6.9137,-4.478602 8.75,-0.0214 C 540.0625,72.009629 543.99785,71.6625 543.99523,71.25 543.98783,70.088193 527.45201,59.732808 518.16184,55.072119 471.90062,31.863778 403.10134,16.606479 323.58527,11.921766 300.8995,10.585227 237.04586,11.197487 216.5,12.948553 131.5685,20.187025 61.479298,39.02312 21.952878,65.232046 L 12.5,71.5 l 8.934301,0.5 8.934301,0.5 -6.340585,4.25 c -6.482113,4.344865 -10.763854,5.240075 -15.6398996,3.269931 z"
         id="path18842"
         transform="matrix(0.27659049,0,0,0.27659049,27.922954,100.22031)" /><g
         id="g23869"
         transform="matrix(1.0299969,0,0,1.0299969,-44.95864,-131.9038)"><path
           id="path21573"
           style="fill:#fcdc0a;fill-opacity:1;stroke:#000000;stroke-width:29.6252;stroke-linecap:round;stroke-linejoin:round;stroke-dasharray:none;stroke-dashoffset:0;paint-order:fill markers stroke"
           d="m 25.828399,130.33345 a 352.92255,154.68829 0 0 0 -352.922669,154.68679 352.92255,154.68829 0 0 0 34.42606,66.29273 352.92255,154.68829 0 0 1 21.60072,-17.33879 352.92255,154.68829 0 0 1 30.17484,-17.66812 352.92255,154.68829 0 0 1 35.60568,-15.60491 352.92255,154.68829 0 0 1 40.31254,-13.22646 352.92255,154.68829 0 0 1 44.19368,-10.57779 352.92255,154.68829 0 0 1 47.179718,-7.71238 352.92255,154.68829 0 0 1 49.203552,-4.69217 352.92255,154.68829 0 0 1 50.225879,-1.57344 352.92255,154.68829 0 0 1 16.792074,0.17451 352.92255,154.68829 0 0 1 16.755067,0.52354 352.92255,154.68829 0 0 1 16.678739,0.87539 352.92255,154.68829 0 0 1 16.565404,1.22159 352.92255,154.68829 0 0 1 16.412747,1.565 352.92255,154.68829 0 0 1 16.2254,1.90558 352.92255,154.68829 0 0 1 16.00104,2.24053 352.92255,154.68829 0 0 1 15.73737,2.57267 352.92255,154.68829 0 0 1 15.4413,2.89918 352.92255,154.68829 0 0 1 15.11056,3.21725 352.92255,154.68829 0 0 1 14.74279,3.52687 352.92255,154.68829 0 0 1 14.34265,3.83367 352.92255,154.68829 0 0 1 13.91013,4.12641 352.92255,154.68829 0 0 1 13.44754,4.41069 352.92255,154.68829 0 0 1 12.95256,4.68936 352.92255,154.68829 0 0 1 12.42984,4.95112 352.92255,154.68829 0 0 1 11.87704,5.20727 352.92255,154.68829 0 0 1 11.29879,5.44652 352.92255,154.68829 0 0 1 10.69512,5.67733 352.92255,154.68829 0 0 1 10.06599,5.89406 352.92255,154.68829 0 0 1 9.41606,6.09673 352.92255,154.68829 0 0 1 8.74298,6.28812 352.92255,154.68829 0 0 1 8.04909,6.46264 352.92255,154.68829 0 0 1 4.95435,4.46981 352.92255,154.68829 0 0 0 34.27804,-66.17451 A 352.92255,154.68829 0 0 0 25.828399,130.33345 Z"
           transform="matrix(0.22342142,0,0,0.18359228,139.84375,190.66236)" /><path
           id="path23016"
           style="fill:#ffa800;fill-opacity:1;stroke:#ffa800;stroke-width:29.6252;stroke-linecap:round;stroke-linejoin:round;stroke-dasharray:none;stroke-dashoffset:0;stroke-opacity:1;paint-order:fill markers stroke"
           d="m -292.66821,351.31297 c 6.35002,-5.97542 13.56497,-11.76682 21.60072,-17.33879 9.0857,-6.19676 19.16964,-12.10116 30.17484,-17.66812 11.00576,-5.56657 22.9046,-10.78147 35.60568,-15.60491 12.70185,-4.82391 26.17365,-9.24398 40.31254,-13.22646 14.13783,-3.98264 28.90664,-7.51756 44.19368,-10.57779 15.28756,-3.05988 31.054249,-5.63724 47.179718,-7.71238 16.12537,-2.07556 32.568396,-3.6436 49.203552,-4.69217 16.6351315,-1.04797 33.4198015,-1.57379 50.225879,-1.57344 5.599724,-2.3e-4 11.198667,0.058 16.792074,0.17451 5.593708,0.11622 11.180312,0.29079 16.755067,0.52354 5.574638,0.23376 11.135792,0.52563 16.678739,0.87539 5.543132,0.34953 11.066497,0.75684 16.565404,1.22159 5.498467,0.46452 10.970937,0.98634 16.412747,1.565 5.44219,0.57868 10.85219,1.21405 16.2254,1.90558 5.37348,0.69109 10.70867,1.43815 16.00104,2.24053 5.29161,0.80271 10.53889,1.66051 15.73737,2.57267 5.19885,0.91256 10.34741,1.87923 15.4413,2.89918 5.09438,1.01971 10.13266,2.09244 15.11056,3.21725 4.9774,1.1242 9.89305,2.30015 14.74279,3.52687 4.84961,1.22783 9.63184,2.50608 14.34265,3.83367 4.71074,1.32691 9.34876,2.70277 13.91013,4.12641 4.56171,1.42326 9.04549,2.89391 13.44754,4.41069 4.4018,1.51785 8.72054,3.08141 12.95256,4.68936 4.2323,1.60692 8.37676,3.25776 12.42984,4.95112 4.05272,1.69421 8.01285,3.43045 11.87704,5.20727 3.8643,1.77596 7.63163,3.59199 11.29879,5.44652 3.6673,1.85498 7.23335,3.74796 10.69512,5.67733 3.46154,1.92941 6.81782,3.89465 10.06599,5.89406 3.2486,1.99921 6.38817,4.03203 9.41606,6.09673 3.02775,2.06533 5.94291,4.16197 8.74298,6.28812 2.79964,2.12592 5.48343,4.28074 8.04909,6.46264 1.70595,1.47821 3.35761,2.96834 4.95435,4.46981 C 341.71645,283.98594 127.89204,240.62722 13.639258,242.04551 -92.753948,243.36623 -294.08462,285.42511 -292.66821,351.31297 Z"
           transform="matrix(0.22342142,0,0,0.18359228,139.84375,190.66236)"
           sodipodi:nodetypes="cccscccccccsssccccccccccccssccsccac" /><path
           id="path9077"
           style="fill:none;fill-opacity:1;stroke:#000000;stroke-width:29.6252;stroke-linecap:round;stroke-linejoin:round;stroke-dasharray:none;stroke-dashoffset:0;paint-order:fill markers stroke"
           d="m 25.828399,130.33345 a 352.92255,154.68829 0 0 0 -352.922669,154.68679 352.92255,154.68829 0 0 0 34.42606,66.29273 352.92255,154.68829 0 0 1 21.60072,-17.33879 352.92255,154.68829 0 0 1 30.17484,-17.66812 352.92255,154.68829 0 0 1 35.60568,-15.60491 352.92255,154.68829 0 0 1 40.31254,-13.22646 352.92255,154.68829 0 0 1 44.19368,-10.57779 352.92255,154.68829 0 0 1 47.179718,-7.71238 352.92255,154.68829 0 0 1 49.203552,-4.69217 352.92255,154.68829 0 0 1 50.225879,-1.57344 352.92255,154.68829 0 0 1 16.792074,0.17451 352.92255,154.68829 0 0 1 16.755067,0.52354 352.92255,154.68829 0 0 1 16.678739,0.87539 352.92255,154.68829 0 0 1 16.565404,1.22159 352.92255,154.68829 0 0 1 16.412747,1.565 352.92255,154.68829 0 0 1 16.2254,1.90558 352.92255,154.68829 0 0 1 16.00104,2.24053 352.92255,154.68829 0 0 1 15.73737,2.57267 352.92255,154.68829 0 0 1 15.4413,2.89918 352.92255,154.68829 0 0 1 15.11056,3.21725 352.92255,154.68829 0 0 1 14.74279,3.52687 352.92255,154.68829 0 0 1 14.34265,3.83367 352.92255,154.68829 0 0 1 13.91013,4.12641 352.92255,154.68829 0 0 1 13.44754,4.41069 352.92255,154.68829 0 0 1 12.95256,4.68936 352.92255,154.68829 0 0 1 12.42984,4.95112 352.92255,154.68829 0 0 1 11.87704,5.20727 352.92255,154.68829 0 0 1 11.29879,5.44652 352.92255,154.68829 0 0 1 10.69512,5.67733 352.92255,154.68829 0 0 1 10.06599,5.89406 352.92255,154.68829 0 0 1 9.41606,6.09673 352.92255,154.68829 0 0 1 8.74298,6.28812 352.92255,154.68829 0 0 1 8.04909,6.46264 352.92255,154.68829 0 0 1 4.95435,4.46981 352.92255,154.68829 0 0 0 34.27804,-66.17451 A 352.92255,154.68829 0 0 0 25.828399,130.33345 Z"
           transform="matrix(0.22342142,0,0,0.18359228,139.84375,190.66236)" /></g><g
         id="g193"
         transform="matrix(0.30335255,-0.0142016,0.0142016,0.30335255,67.879137,20.448967)"
         style="stroke-width:1.00157;stroke-dasharray:none"
         inkscape:transform-center-x="0.53707052"
         inkscape:transform-center-y="-8.162069"><path
           fill-rule="evenodd"
           clip-rule="evenodd"
           d="m 48.859,43.518 c 8.424,17.64 2.736,140.832 -7.128,184.032 -9.864,43.272 -19.728,98.28 -22.032,144.576 -1.008,19.728 2.016,27.504 14.904,27.504 22.752,0 51.624,-47.952 87.84,-46.872 36.288,1.08 47.808,55.008 64.8,54.648 16.992,-0.36 30.672,-6.264 30.816,-58.752 C 218.563,191.981 87.235,64.973 48.859,43.518 Z"
           id="path132"
           style="stroke-width:1.00157;stroke-dasharray:none" /><path
           fill-rule="evenodd"
           clip-rule="evenodd"
           d="m 162.763,168.726 c 7.992,13.464 28.368,3.096 29.232,-12.096 0.864,-15.192 -1.368,-34.344 -11.232,-35.064 -9.864,-0.72 -16.92,-10.584 -26.784,-11.304 -9.864,-0.72 -20.448,9.144 -25.056,-3.96 -4.608,-13.104 12.384,-18.648 25.056,-20.736 -11.304,-11.304 -17.928,-23.832 -22.896,-36.864 -4.968,-13.032 -8.64,-24.984 5.256,-30.096 13.896,-5.112 12.744,21.168 28.656,33.192 -4.68,-17.712 -6.408,-25.056 -6.048,-35.352 0.36,-10.296 -0.36,-18.144 14.256,-16.128 14.616,2.016 8.28,32.4 19.656,44.784 3.456,-11.736 5.544,-26.64 13.896,-32.76 8.352,-6.12 27.36,-6.264 15.264,18.864 -12.096,25.128 3.528,38.736 -0.144,58.536 -3.672,19.8 -15.048,16.2 -19.944,28.944 -4.896,12.744 2.88,41.76 -6.336,54.792 -9.216,13.032 -10.872,33.048 -4.896,49.032 -18.36,-17.136 -27.936,-53.784 -27.936,-53.784 z"
           id="path134"
           style="stroke-width:1.00157;stroke-dasharray:none" /><path
           fill-rule="evenodd"
           clip-rule="evenodd"
           d="m 48.355,185.646 c -7.416,50.832 -33.192,56.88 -34.488,77.976 -1.296,21.096 6.84,23.112 6.336,42.624 -0.504,19.512 -17.856,27.432 -19.944,38.016 -2.088,10.584 8.928,13.968 15.336,13.968 6.408,0 12.816,-28.08 15.408,-45.936 2.592,-17.856 -8.496,-28.368 -8.496,-40.608 0,-12.24 16.056,-34.632 13.104,-14.976 13.32,-21.024 19.657,-47.809 12.744,-71.064 z"
           id="path136"
           style="stroke-width:1.00157;stroke-dasharray:none" /><path
           fill-rule="evenodd"
           clip-rule="evenodd"
           fill="#ffffff"
           d="m 58.292,205.013 c -5.616,27.504 -40.68,181.08 -22.824,183.024 17.856,1.944 43.272,-47.52 84.888,-47.16 41.688,0.36 58.104,55.44 68.256,55.08 10.152,-0.36 16.848,3.6 17.928,-58.464 1.08,-62.064 -36.792,-141.336 -59.184,-176.256 -30.385,1.944 -63.073,26.281 -89.064,43.776 z"
           id="path138"
           style="stroke-width:1.00157;stroke-dasharray:none" /><g
           id="g167"
           style="stroke-width:1.00157;stroke-dasharray:none">
	<path
   fill="none"
   d="m 139.162,172.181 c -1.95,-18.251 -19.12,-25.421 -35.661,-23.168 -13.889,1.893 -32.403,13.613 -34.107,28.64 -1.921,16.937 11.402,32.522 28.361,33.203 15.03,0.604 31.176,-6.668 37.93,-20.79 2.73,-5.704 3.797,-11.578 3.477,-17.885"
   id="path140"
   style="stroke-width:1.00157;stroke-dasharray:none" />
	<path
   d="m 147.082,171.533 c -1.662,-17.195 -14.407,-27.988 -30.895,-30.627 -15.924,-2.549 -33.26,4.998 -44.408,16.146 -12.538,12.538 -13.039,29.978 -4.26,44.833 8.661,14.657 27.847,19.501 43.563,15.835 21.506,-5.015 37.398,-23.824 36,-46.187"
   id="path142"
   style="stroke-width:1.00157;stroke-dasharray:none" />
	<radialGradient
   id="SVGID_1_"
   cx="86.629898"
   cy="167.06931"
   r="54.7155"
   gradientUnits="userSpaceOnUse">
		<stop
   offset="0"
   style="stop-color:#FFFFFF"
   id="stop144" />
		<stop
   offset="0.0604"
   style="stop-color:#FBC8B4"
   id="stop146" />
		<stop
   offset="0.0712"
   style="stop-color:#FBC3B0"
   id="stop148" />
		<stop
   offset="0.1829"
   style="stop-color:#F7978B"
   id="stop150" />
		<stop
   offset="0.2995"
   style="stop-color:#F4716B"
   id="stop152" />
		<stop
   offset="0.4199"
   style="stop-color:#F15251"
   id="stop154" />
		<stop
   offset="0.5453"
   style="stop-color:#EF3A3D"
   id="stop156" />
		<stop
   offset="0.6778"
   style="stop-color:#EE292F"
   id="stop158" />
		<stop
   offset="0.822"
   style="stop-color:#ED1F27"
   id="stop160" />
		<stop
   offset="1"
   style="stop-color:#ED1C24"
   id="stop162" />
	</radialGradient>
	<path
   fill="url(#SVGID_1_)"
   stroke="#000000"
   d="m 139.162,177.941 c -1.493,15.627 -13.947,28.182 -28.944,31.824 -15.87,3.854 -33.393,-2.257 -39.096,-18.576 -2.912,-8.332 -2.37,-16.879 2.637,-24.198 4.223,-6.171 11.033,-11 17.779,-14.066 13.924,-6.326 33.832,-7.029 43.531,7.077 3.675,5.346 4.318,11.639 4.093,17.939"
   id="path165"
   style="fill:url(#SVGID_1_);stroke-width:1.00157;stroke-dasharray:none" />
</g></g></g></g><style
     id="style195">.B{fill:#b28309}.C{fill:#d89f11}.D{fill:#d49c11}.E{fill:#d09910}.F{fill:#cc960f}.G{fill:#c8930f}.H{fill:#c4900e}.I{fill:#c08d0d}.J{fill:#bb8a0c}.K{fill:#b6860a}.L{fill:#ae8008}.M{fill:#eaab13}.N{fill:#e6a813}.O{fill:#e1a412}.P{fill:#dda212}.Q{fill:#aa7d06}.R{fill:#a67a05}.S{fill:#a27704}.T{fill:#9e7402}.U{fill:#9a7101}.V{fill:#966e00}.W{fill:#fff200}.X{fill:#eeae13}.Y{fill:#f2b013}.Z{fill:#f6b413}.a{fill:#fdb813}.b{fill:#febf39}.c{fill:#fec345}.d{fill:#ffc550}.e{fill:#ffc758}.f{fill:#ffc95e}.g{fill:#ffcb65}.h{fill:#ffcc6a}.i{fill:#ffce6f}.j{fill:#ffcf74}.k{fill:#ffd078}.l{fill:#ffd27b}.m{fill:#ffd37f}.n{fill:#ffd482}.o{fill:#ffd585}.p{fill:#ffd689}.q{fill:#ffd78b}</style><metadata
     id="metadata31085"><rdf:RDF><cc:Work
         rdf:about=""><dc:title>Duke and the Ring</dc:title><dc:date>2022-08-07</dc:date><dc:creator><cc:Agent><dc:title>Bruno P. Kinoshita</dc:title></cc:Agent></dc:creator><dc:rights><cc:Agent><dc:title>Ask Fernando Boaglio</dc:title></cc:Agent></dc:rights><dc:language>Elf</dc:language><dc:subject><rdf:Bag><rdf:li>lotr</rdf:li><rdf:li>lord of the rings</rdf:li><rdf:li>java</rdf:li><rdf:li>duke</rdf:li><rdf:li>nerd</rdf:li><rdf:li>geek</rdf:li><rdf:li>programming</rdf:li></rdf:Bag></dc:subject><dc:description>Java's Duke mascot waving from inside the ring from Lord of the Rings.</dc:description><dc:contributor><cc:Agent><dc:title>Fernando Boaglio (concept).</dc:title></cc:Agent></dc:contributor></cc:Work></rdf:RDF></metadata></svg>
